<svg width="138" height="151" viewBox="0 0 138 151" fill="none" xmlns="http://www.w3.org/2000/svg">
<path d="M22 22L22 2" stroke="#757575" stroke-width="3" stroke-linecap="round"/>
<path d="M52 22V2" stroke="#757575" stroke-width="3" stroke-linecap="round"/>
<path d="M82 22V2" stroke="#757575" stroke-width="3" stroke-linecap="round"/>
<path d="M110.505 81.0104L121.819 92.3241C123.967 94.472 123.967 97.9544 121.819 100.102L97.091 124.83C96.4733 125.448 95.7188 125.908 94.8909 126.175L94.5319 126.278L80.5133 129.771C76.7396 130.711 73.2533 127.554 73.7233 123.771L73.7813 123.404L76.6353 108.447C76.8419 107.365 77.3694 106.368 78.1489 105.589L102.727 81.0104C104.875 78.8625 108.357 78.8625 110.505 81.0104Z" stroke="#757575" stroke-width="3"/>
<path d="M76.5 11C91.1355 11 103 22.8645 103 37.5V73H100V37.5C100 24.5213 89.4787 14 76.5 14H26.5C13.5213 14 3 24.5213 3 37.5V107.5C3 120.479 13.5213 131 26.5 131H68V134H26.5C11.8645 134 0 122.136 0 107.5V37.5C0 22.8645 11.8645 11 26.5 11H76.5Z" fill="#757575"/>
</svg>
