<svg width="180" height="180" viewBox="0 0 180 180" fill="none" xmlns="http://www.w3.org/2000/svg">
<rect width="180" height="180" rx="10" fill="#C7E5A9"/>
<rect x="12" y="19" width="90" height="71" rx="3" stroke="#FFFDF6" stroke-width="5"/>
<path d="M22 27H92" stroke="#FFFDF6" stroke-width="5" stroke-linecap="round"/>
<path d="M22 38H32" stroke="#FFFDF6" stroke-width="5" stroke-linecap="round"/>
<path d="M82 38H92" stroke="#FFFDF6" stroke-width="5" stroke-linecap="round"/>
<path d="M22 49H32" stroke="#FFFDF6" stroke-width="5" stroke-linecap="round"/>
<path d="M82 49H92" stroke="#FFFDF6" stroke-width="5" stroke-linecap="round"/>
<path d="M22 60H32" stroke="#FFFDF6" stroke-width="5" stroke-linecap="round"/>
<path d="M82 60H92" stroke="#FFFDF6" stroke-width="5" stroke-linecap="round"/>
<path d="M22 71H32" stroke="#FFFDF6" stroke-width="5" stroke-linecap="round"/>
<path d="M82 71H92" stroke="#FFFDF6" stroke-width="5" stroke-linecap="round"/>
<path d="M22 82H92" stroke="#FFFDF6" stroke-width="5" stroke-linecap="round"/>
<path fill-rule="evenodd" clip-rule="evenodd" d="M48.5292 34.167H65.4708C67.3167 34.167 68.9083 34.167 70.1833 34.3378C71.5479 34.5212 72.8583 34.9357 73.9187 35.9982C74.9812 37.0607 75.3958 38.3691 75.5792 39.7337C75.75 41.0087 75.75 42.6003 75.75 44.4462V46.5628C75.75 47.1154 75.5305 47.6453 75.1398 48.036C74.7491 48.4267 74.2192 48.6462 73.6667 48.6462C73.1141 48.6462 72.5842 48.4267 72.1935 48.036C71.8028 47.6453 71.5833 47.1154 71.5833 46.5628V44.5837C71.5833 42.5607 71.5792 41.2524 71.45 40.2899C71.3271 39.3857 71.1313 39.1024 70.9729 38.9441C70.8146 38.7857 70.5313 38.5899 69.6271 38.467C68.6667 38.3378 67.3562 38.3337 65.3333 38.3337H59.0833V73.7503C59.0833 74.3029 58.8638 74.8328 58.4731 75.2235C58.0824 75.6142 57.5525 75.8337 57 75.8337C56.4475 75.8337 55.9176 75.6142 55.5269 75.2235C55.1362 74.8328 54.9167 74.3029 54.9167 73.7503V38.3337H48.6667C46.6437 38.3337 45.3354 38.3378 44.3729 38.467C43.4688 38.5899 43.1854 38.7857 43.0271 38.9441C42.8688 39.1024 42.6729 39.3857 42.55 40.2899C42.4208 41.2503 42.4167 42.5607 42.4167 44.5837V46.5628C42.4167 47.1154 42.1972 47.6453 41.8065 48.036C41.4158 48.4267 40.8859 48.6462 40.3333 48.6462C39.7808 48.6462 39.2509 48.4267 38.8602 48.036C38.4695 47.6453 38.25 47.1154 38.25 46.5628V44.4462C38.25 42.6003 38.25 41.0087 38.4208 39.7337C38.6042 38.3691 39.0187 37.0587 40.0812 35.9982C41.1437 34.9357 42.4521 34.5212 43.8167 34.3378C45.0917 34.167 46.6833 34.167 48.5292 34.167Z" fill="#FFFDF6"/>
<path d="M46.5835 73.75H67.4168" stroke="#FFFDF6" stroke-width="2" stroke-linecap="round" stroke-linejoin="round"/>
<rect x="77" y="73" width="90" height="90" rx="3" fill="#C7E5A9" stroke="#FFFDF6" stroke-width="5"/>
<rect x="84" y="80" width="75" height="75" rx="3" fill="#C7E5A9" stroke="#FFFDF6" stroke-width="5"/>
<path d="M84 146L102.582 109.464C103.713 107.239 106.908 107.289 107.97 109.547L122.187 139.764C123.01 141.512 125.245 142.039 126.761 140.841L138.542 131.537C139.671 130.645 141.274 130.68 142.363 131.621L159 146" stroke="#FFFDF6" stroke-width="5" stroke-linecap="round"/>
<circle cx="137" cy="104" r="10" stroke="#FFFDF6" stroke-width="5"/>
<path d="M111 33.9804C129.322 32.4257 132.791 45.1225 131.858 61.5123" stroke="#FFFDF6" stroke-width="4" stroke-linecap="round"/>
<path d="M133.095 67.3391C134.073 68.7005 136.191 68.3269 136.644 66.7132L141.413 49.7403C141.812 48.3217 140.592 46.9738 139.14 47.2297L124.085 49.8843C122.634 50.1401 121.949 51.8241 122.808 53.0208L133.095 67.3391Z" fill="#FFFDF6"/>
</svg>
