<svg width="1099" height="794" viewBox="0 0 1099 794" fill="none" xmlns="http://www.w3.org/2000/svg">
<rect x="136.075" y="242.325" width="850" height="550" rx="50" transform="rotate(-1 136.075 242.325)" fill="#CDCAC0" stroke="#757575" stroke-width="5"/>
<rect x="127" y="237.485" width="850" height="550" rx="50" transform="rotate(-3 127 237.485)" fill="#CDCAC0" stroke="#757575" stroke-width="5"/>
<rect x="118.54" y="238.961" width="850" height="550" rx="50" transform="rotate(-5 118.54 238.961)" fill="#FFFDF6" stroke="#757575" stroke-width="5"/>
<ellipse cx="253.5" cy="490" rx="28.5" ry="8" fill="#757575"/>
<path d="M11.0688 496.654C4.95565 426.781 56.6438 365.182 126.517 359.069C196.39 352.956 257.887 414.126 264 484C264 484 262.087 488.95 253 490C243.913 491.05 240 484 240 484C235.109 428.101 185.398 381.61 129.5 386.5C73.6012 391.391 33.6095 436.601 38.5 492.5C43.3905 548.399 85.1013 592.391 141 587.5C141 587.5 141.568 595.559 142 600.5C142.432 605.441 142 613 142 613C72.1267 619.113 17.1819 566.528 11.0688 496.654Z" fill="url(#paint0_linear_523_1027)"/>
<path d="M351.839 526.281C356.57 527.503 361.469 528.57 366.521 529.474L361.034 549.125C359.894 553.406 360.55 555.008 360.835 555.466C361.241 555.891 362.378 556.694 365.898 556.386L370.381 555.994C373.677 555.706 375.655 554.761 376.911 553.667C378.16 552.578 379.338 550.781 380.032 547.626L380.052 547.536L380.073 547.446L383.903 531.88C390.929 532.579 398.186 532.985 405.636 533.083L398.911 533.672L394.647 550.998C393.414 556.482 390.921 561.353 386.767 564.973C382.582 568.621 377.357 570.44 371.689 570.936L367.205 571.329C360.47 571.918 353.703 570.432 349.133 564.864L349.046 564.758L348.962 564.648C344.645 558.976 344.781 551.833 346.552 545.216L346.563 545.178L346.574 545.138L351.839 526.281ZM785.594 307.948C792.098 305.289 798.837 305.315 805.397 307.882H805.398C805.42 307.89 805.443 307.899 805.466 307.908C805.475 307.912 805.485 307.915 805.494 307.919H805.493C812.223 310.497 817.26 315.16 820.016 321.783C822.984 328.35 822.77 335.184 819.563 341.637L819.564 341.638C818.262 344.311 816.32 348.2 813.748 353.285C812.759 355.289 811.765 357.266 810.771 359.217C817.671 361.766 823.396 365.812 827.486 371.643H827.488C832.983 379.339 835.903 389.916 837.003 402.491L838.201 416.188C839.212 427.743 838.441 437.868 835.288 446.092L835.274 446.127L835.261 446.163C831.807 454.901 825.023 461.233 815.908 465.388L815.865 465.407L815.824 465.426C814.362 466.071 812.81 466.674 811.172 467.238L846.662 464.134C853.094 463.571 859.193 465.11 863.97 469.567C868.516 473.641 871.047 478.954 871.579 485.041C872.112 491.127 870.542 496.799 866.773 501.6C862.842 506.82 857.103 509.396 850.671 509.959L775.209 516.56L776.756 534.243C777.405 541.665 775.502 548.492 770.635 554.026C765.942 559.362 759.791 562.329 752.667 562.952C745.64 563.567 739.166 561.658 733.67 557.261C727.915 552.656 724.856 546.262 724.207 538.841L722.66 521.158L648.443 527.651C642.035 528.212 636.042 526.58 631.207 522.282C626.615 518.199 624.062 512.862 623.526 506.743C622.991 500.624 624.578 494.924 628.392 490.106C632.407 485.034 638.026 482.387 644.435 481.826L679.504 478.758C677.786 478.491 676.142 478.173 674.576 477.799L674.484 477.776L674.392 477.753C664.833 475.212 657.18 470.128 652.292 462.171L652.273 462.138L652.252 462.104C647.72 454.553 645.203 444.716 644.192 433.162L642.994 419.465C642.019 408.312 642.638 398.586 645.436 390.762L645.466 390.679C647.5 385.193 650.768 380.58 655.083 376.825C654.444 375.88 653.266 374.298 651.395 371.962L651.247 371.776L651.11 371.583C649.041 368.635 646.98 365.771 644.929 362.992L644.876 362.92L644.825 362.847C642.714 359.84 641.383 358.07 640.712 357.286L640.609 357.166L640.512 357.04C636.386 351.78 634.832 345.588 636.289 339.037C637.642 332.728 641.124 327.611 646.479 324.029C651.643 320.399 657.53 318.746 663.854 319.085C663.864 319.085 663.875 319.086 663.886 319.087H663.885C671.008 319.452 676.922 322.735 681.209 328.401C682.389 329.813 683.91 331.933 685.679 334.543C687.704 337.144 689.73 339.745 691.755 342.347C693.818 344.997 695.352 347.025 696.251 348.319C699.038 352.153 700.723 356.472 701.135 361.176C701.179 361.678 701.205 362.177 701.217 362.674L706.72 362.192C706.619 362.019 706.517 361.842 706.411 361.661L701.686 353.542L701.592 353.382L701.507 353.218C700.107 350.515 699.209 348.979 698.742 348.305L698.556 348.038L698.395 347.756C695.106 342.007 694.141 335.73 695.75 329.32L695.77 329.242L695.791 329.165C697.579 322.64 701.533 317.509 707.4 314.147C713.319 310.743 719.752 309.592 726.338 311.124C733.13 312.483 738.425 316.414 741.976 322.329C743.09 323.831 744.388 326.028 745.77 328.52C747.335 331.21 748.901 333.899 750.466 336.589C751.962 339.159 753.071 341.107 753.751 342.364C755.977 346.053 757.23 350.036 757.337 354.205C758.014 352.715 758.741 351.114 759.523 349.402C761.892 344.015 764.193 338.8 766.426 333.758L766.443 333.719L766.462 333.68C768.815 328.525 770.56 324.715 771.692 322.258C774.434 315.703 779.03 310.71 785.523 307.977L785.559 307.964L785.594 307.948ZM506.753 531.125L506.77 531.161L506.787 531.197C509.723 537.499 511.002 544.635 507.408 551.017L507.407 551.016C503.981 557.409 497.397 559.938 490.733 560.521L485.504 560.979C479.884 561.471 474.473 560.565 469.742 557.715C465.036 554.878 461.694 550.533 459.443 545.36V545.361L452.568 529.792C455.2 529.397 457.844 528.968 460.5 528.5C462.944 528.069 465.374 527.608 467.789 527.124L473.166 539.302L473.176 539.325L473.187 539.348C474.499 542.376 476.025 543.987 477.485 544.867C478.936 545.741 481.017 546.314 484.196 546.036L489.427 545.579C493.634 545.211 494.161 543.988 494.206 543.9L494.271 543.778L494.337 543.658C494.508 543.354 495.197 541.84 493.19 537.533V537.532L486.163 522.864C491.114 521.558 495.985 520.143 500.765 518.627L506.753 531.125ZM590.311 527.718C590.888 534.32 589.815 540.793 585.652 545.831C581.471 550.892 575.319 553.121 568.742 553.696C562.166 554.271 555.72 553.144 550.724 548.887C545.75 544.648 543.569 538.46 542.991 531.858L540.444 502.756C545.418 500.307 550.22 497.747 554.831 495.088L557.934 530.551C558.315 534.906 559.552 536.701 560.453 537.47C561.332 538.218 563.22 539.122 567.435 538.754C571.65 538.385 573.353 537.166 574.088 536.276C574.842 535.363 575.748 533.381 575.367 529.025L571.47 484.484C576.499 480.94 581.21 477.274 585.567 473.509L590.311 527.718ZM799.981 321.869C796.881 320.644 794.131 320.675 791.314 321.816C788.844 322.863 786.89 324.735 785.488 328.142L785.428 328.288L785.363 328.43C784.25 330.846 782.51 334.644 780.142 339.831C777.909 344.872 775.608 350.087 773.238 355.475L773.217 355.523L773.195 355.57C770.812 360.79 768.929 364.95 767.543 368.056L765.744 372.086L679.994 379.588L670.153 384.656C664.554 387.54 661.246 391.291 659.542 395.859C657.782 400.814 657.056 408.09 657.937 418.157L659.135 431.854C660.039 442.19 662.193 449.5 665.092 454.347C667.606 458.423 671.682 461.491 678.155 463.23C685.216 464.899 695.421 465.319 709.138 464.119L732.548 462.071L734.901 488.969L645.742 496.769C642.853 497.022 641.26 498.017 640.153 499.416C638.845 501.069 638.25 502.921 638.47 505.435C638.69 507.95 639.597 509.671 641.173 511.072C642.506 512.257 644.247 512.96 647.136 512.708L736.296 504.908L739.15 537.533C739.489 541.401 740.88 543.821 743.041 545.55C745.461 547.486 748.093 548.294 751.359 548.009C754.861 547.702 757.37 546.397 759.372 544.121C761.2 542.043 762.152 539.419 761.814 535.551L758.959 502.925L849.363 495.015C852.519 494.739 853.957 493.702 854.815 492.549L854.882 492.458L854.951 492.369C856.26 490.716 856.856 488.863 856.636 486.348C856.416 483.834 855.507 482.113 853.932 480.713L853.848 480.638L853.765 480.559C852.72 479.573 851.125 478.8 847.97 479.076L757.565 486.986L755.211 460.089L779.618 457.953C793.378 456.749 803.259 454.564 809.729 451.72C816.016 448.844 819.543 445.09 821.295 440.682C823.308 435.405 824.162 427.832 823.258 417.496L822.06 403.798C821.068 392.465 818.556 384.946 815.28 380.359L815.257 380.326L815.233 380.292C812.33 376.129 807.234 372.908 798.556 371.492L788.195 369.802L793.153 360.549C795.557 356.063 797.948 351.407 800.329 346.582L800.345 346.549L800.361 346.516C802.924 341.449 804.826 337.64 806.077 335.071L806.096 335.033L806.115 334.995C807.407 332.416 807.41 330.276 806.321 327.903L806.256 327.76L806.196 327.613C805.12 324.981 803.284 323.122 800.078 321.906L799.981 321.869ZM731.35 448.374L707.44 450.466C703.853 450.78 700.644 450.907 697.879 450.805C695.216 450.706 692.49 450.381 690.12 449.517L689.933 449.449L689.749 449.37C683.529 446.72 681.137 440.523 680.264 435.059L678.991 427.106L729.106 422.722L731.35 448.374ZM803.007 424.321C803.095 429.853 801.816 436.372 796.151 440.061L795.983 440.171L795.81 440.27C793.625 441.532 790.998 442.326 788.393 442.886C785.688 443.467 782.506 443.898 778.918 444.212L754.013 446.39L751.769 420.739L802.878 416.267L803.007 424.321ZM728.364 414.254L677.893 418.67L678.124 410.258C678.273 404.884 679.889 398.678 685.633 395.359C689.615 393.059 695.672 392.019 702.277 391.441L726.186 389.349L728.364 414.254ZM773.754 385.187C777.339 384.874 780.534 384.746 783.27 384.853C785.807 384.953 788.485 385.272 790.823 386.157H790.824C790.838 386.162 790.851 386.168 790.864 386.173C790.914 386.192 790.964 386.21 791.014 386.229L791.013 386.23C797.11 388.549 799.738 394.311 800.807 399.524L802.496 407.768L751.028 412.271L748.849 387.366L773.754 385.187ZM663.066 334.064C660.015 333.897 657.446 334.646 655.072 336.324L654.975 336.392L654.876 336.458C652.713 337.886 651.493 339.678 650.956 342.182L650.939 342.264C650.501 344.199 650.803 345.834 652.275 347.732C653.445 349.127 655.064 351.329 657.031 354.129C659.099 356.932 661.172 359.813 663.25 362.77C665.268 365.296 666.897 367.454 667.943 369.087C668.946 370.403 669.812 371.114 670.468 371.493L679.217 376.542L685.09 367.097C685.993 365.644 686.341 364.186 686.191 362.482C686.028 360.613 685.376 358.84 684.061 357.058L683.996 356.97L683.933 356.879C683.299 355.964 681.996 354.229 679.919 351.561L673.699 343.573L673.544 343.375L673.403 343.166C671.483 340.325 670.264 338.675 669.637 337.941L669.47 337.745L669.316 337.539C667.553 335.165 665.628 334.192 663.102 334.066L663.066 334.064ZM723.009 325.749C720.422 325.131 717.834 325.451 714.88 327.15L714.872 327.154L714.865 327.159C712.477 328.525 711.031 330.37 710.278 333.057C709.696 335.454 709.968 337.694 711.32 340.136C712.305 341.618 713.458 343.688 714.726 346.127C716.275 348.789 717.825 351.452 719.375 354.115C720.839 356.63 721.932 358.55 722.616 359.809C723.371 361.014 724.223 361.989 725.169 362.783L731.488 368.085L739.797 360.765C741.401 359.352 742.074 357.925 742.232 356.232L742.246 356.07L742.269 355.908C742.522 354.061 742.181 352.183 740.856 350.025L740.74 349.838L740.637 349.642C740.106 348.652 739.078 346.842 737.502 344.134C735.927 341.428 734.351 338.722 732.776 336.015L732.734 335.945L732.696 335.874C731.076 332.946 730.187 331.584 729.892 331.215L729.532 330.765L729.245 330.265C727.692 327.565 725.812 326.298 723.327 325.817L723.167 325.787L723.009 325.749Z" fill="#757575"/>
<path d="M413.604 347.078C417.389 346.747 420.105 346.811 421.751 347.27C423.579 347.511 425.044 348.186 426.145 349.294C427.228 350.203 428.914 352.264 431.202 355.477C438.9 365.443 445.628 375.796 451.386 386.535C457.343 397.257 464.97 412.15 474.267 431.212L481.929 446.502C488.762 460.359 494.599 471.994 499.438 481.408C504.458 490.606 509.808 498.972 515.486 506.506C517.366 509.036 518.782 511.179 519.737 512.934C509.577 516.254 499.078 519.233 488.383 521.825C487.445 520.447 486.561 519.018 485.734 517.54C483.575 513.513 481.247 508.698 478.749 503.095C478.263 502.133 476.806 499.249 474.378 494.442C472.149 489.618 469.682 485.518 466.978 482.141C454.583 485.032 444.4 486.826 436.431 487.524C432.048 487.907 427.158 488.235 421.761 488.506C416.546 488.561 412.643 488.701 410.053 488.928C400.021 489.002 392.017 489.301 386.04 489.824C383.928 493.221 382.132 496.791 380.652 500.534C379.372 504.26 377.751 509.823 375.788 517.222C374.448 522.56 373.167 527.14 371.945 530.961C360.954 529.426 350.938 527.023 342 523.789C342.872 519.89 343.936 515.882 345.196 511.768C348.033 502.887 352.121 491.085 357.458 476.364L366.85 446.03C371.96 428.719 376.682 413.851 381.016 401.426C385.548 388.983 391.584 374.201 399.12 357.079C400.106 354.584 401.924 352.417 404.574 350.579C407.207 348.542 410.217 347.375 413.604 347.078ZM555.164 396.73C560.942 396.224 565.04 397.171 567.458 399.569C570.075 401.95 571.628 405.93 572.116 411.509L576.823 465.303L577.581 473.97C577.985 478.584 578.448 483.051 578.968 487.372C570.081 492.404 560.421 497.142 550.174 501.524C548.751 485.757 546.717 468.215 544.068 448.896C541.703 431.034 540.206 418.516 539.578 411.344C539.264 407.758 540.788 404.512 544.148 401.608C547.507 398.705 551.179 397.078 555.164 396.73ZM417.066 383.214C414.118 393.109 409.619 405.95 403.572 421.737C399.411 431.537 394.917 445.582 390.093 463.872C402.984 464.35 416.801 463.944 431.545 462.654C442.105 461.731 450.312 460.31 456.167 458.393C452.387 451.897 446.775 440.543 439.334 424.33C431.589 406.939 424.167 393.233 417.066 383.214ZM541.331 335C548.357 334.988 554.6 336.349 560.059 339.084C565.5 341.619 568.491 345.975 569.031 352.151C569.432 356.734 567.563 360.611 563.424 363.784C559.467 366.74 554.5 368.48 548.523 369.003C542.745 369.508 538.629 368.363 536.176 365.566C533.723 362.77 532.357 359.777 532.078 356.589C531.555 350.612 531.717 345.579 532.564 341.489C533.61 337.383 536.532 335.219 541.331 335Z" fill="#A0C878"/>
<path d="M413.604 347.078L412.95 339.607L412.95 339.607L413.604 347.078ZM421.751 347.27L419.74 354.495L420.247 354.636L420.768 354.705L421.751 347.27ZM426.145 349.294L420.823 354.579L421.063 354.821L421.323 355.039L426.145 349.294ZM431.202 355.477L425.094 359.828L425.178 359.946L425.266 360.061L431.202 355.477ZM451.386 386.535L444.776 390.079L444.803 390.129L444.83 390.178L451.386 386.535ZM474.267 431.212L467.526 434.5L467.543 434.536L467.561 434.572L474.267 431.212ZM481.929 446.502L488.655 443.185L488.645 443.163L488.634 443.142L481.929 446.502ZM499.438 481.408L492.767 484.837L492.81 484.92L492.855 485.002L499.438 481.408ZM515.486 506.506L521.507 502.033L521.491 502.013L521.476 501.992L515.486 506.506ZM519.737 512.934L522.067 520.063L530.635 517.263L526.324 509.347L519.737 512.934ZM488.383 521.825L482.182 526.045L485.103 530.337L490.15 529.114L488.383 521.825ZM485.734 517.54L479.125 521.084L479.156 521.143L479.189 521.202L485.734 517.54ZM478.749 503.095L485.599 500.041L485.525 499.875L485.443 499.713L478.749 503.095ZM474.378 494.442L467.57 497.588L467.625 497.707L467.684 497.824L474.378 494.442ZM466.978 482.141L472.832 477.452L469.877 473.763L465.274 474.837L466.978 482.141ZM436.431 487.524L437.084 494.995L437.084 494.995L436.431 487.524ZM421.761 488.506L421.84 496.006L421.989 496.004L422.137 495.996L421.761 488.506ZM410.053 488.928L410.109 496.428L410.408 496.425L410.706 496.399L410.053 488.928ZM386.04 489.824L385.386 482.353L381.651 482.68L379.671 485.864L386.04 489.824ZM380.652 500.534L373.677 497.778L373.615 497.936L373.559 498.097L380.652 500.534ZM375.788 517.222L368.539 515.299L368.526 515.347L368.514 515.395L375.788 517.222ZM371.945 530.961L370.908 538.389L377.165 539.263L379.089 533.245L371.945 530.961ZM342 523.789L334.681 522.152L333.24 528.595L339.448 530.842L342 523.789ZM345.196 511.768L338.052 509.486L338.038 509.528L338.025 509.57L345.196 511.768ZM357.458 476.364L364.509 478.921L364.57 478.753L364.623 478.583L357.458 476.364ZM366.85 446.03L374.014 448.249L374.029 448.201L374.043 448.154L366.85 446.03ZM381.016 401.426L373.969 398.859L373.951 398.907L373.934 398.956L381.016 401.426ZM399.12 357.079L405.985 360.101L406.042 359.969L406.095 359.836L399.12 357.079ZM404.574 350.579L408.849 356.742L409.01 356.63L409.164 356.511L404.574 350.579ZM555.164 396.73L554.51 389.258L554.51 389.258L555.164 396.73ZM567.458 399.569L562.177 404.895L562.292 405.009L562.411 405.117L567.458 399.569ZM572.116 411.509L564.645 412.163L564.645 412.163L572.116 411.509ZM576.823 465.303L584.295 464.65L584.295 464.649L576.823 465.303ZM577.581 473.97L570.11 474.623L570.11 474.623L577.581 473.97ZM578.968 487.372L582.663 493.899L587.011 491.437L586.414 486.477L578.968 487.372ZM550.174 501.524L542.704 502.198L543.632 512.478L553.123 508.42L550.174 501.524ZM544.068 448.896L536.633 449.88L536.636 449.897L536.638 449.914L544.068 448.896ZM539.578 411.344L532.107 411.998L532.107 411.998L539.578 411.344ZM544.148 401.608L539.243 395.934L539.243 395.934L544.148 401.608ZM417.066 383.214L423.186 378.877L414.279 366.309L409.879 381.072L417.066 383.214ZM403.572 421.737L410.476 424.669L410.528 424.545L410.576 424.42L403.572 421.737ZM390.093 463.872L382.841 461.959L380.451 471.02L389.815 471.367L390.093 463.872ZM431.545 462.654L432.199 470.126L432.199 470.126L431.545 462.654ZM456.167 458.393L458.501 465.52L467.314 462.634L462.649 454.62L456.167 458.393ZM439.334 424.33L432.483 427.381L432.5 427.42L432.518 427.459L439.334 424.33ZM541.331 335L541.318 327.5L541.153 327.5L540.989 327.508L541.331 335ZM560.059 339.084L556.7 345.79L556.795 345.837L556.891 345.882L560.059 339.084ZM569.031 352.151L576.503 351.498L576.503 351.498L569.031 352.151ZM563.424 363.784L567.912 369.793L567.95 369.765L567.987 369.737L563.424 363.784ZM548.523 369.003L549.176 376.474L549.176 376.474L548.523 369.003ZM536.176 365.566L530.537 370.512L530.538 370.512L536.176 365.566ZM532.078 356.589L524.607 357.243L524.607 357.243L532.078 356.589ZM532.564 341.489L525.296 339.638L525.254 339.802L525.219 339.969L532.564 341.489ZM413.604 347.078L414.257 354.55C415.973 354.4 417.307 354.352 418.303 354.376C419.358 354.401 419.758 354.5 419.74 354.495L421.751 347.27L423.762 340.044C420.706 339.193 416.806 339.269 412.95 339.607L413.604 347.078ZM421.751 347.27L420.768 354.705C421.042 354.741 421.123 354.788 421.082 354.769C421.062 354.759 421.022 354.739 420.971 354.703C420.919 354.667 420.868 354.624 420.823 354.579L426.145 349.294L431.466 344.009C428.994 341.52 425.896 340.252 422.734 339.834L421.751 347.27ZM426.145 349.294L421.323 355.039C421.32 355.036 421.659 355.344 422.416 356.27C423.117 357.126 424.005 358.3 425.094 359.828L431.202 355.477L437.311 351.125C435.089 348.006 432.89 345.164 430.966 343.549L426.145 349.294ZM431.202 355.477L425.266 360.061C432.72 369.711 439.22 379.717 444.776 390.079L451.386 386.535L457.996 382.991C452.036 371.876 445.08 361.176 437.138 350.892L431.202 355.477ZM451.386 386.535L444.83 390.178C450.692 400.729 458.252 415.484 467.526 434.5L474.267 431.212L481.008 427.924C471.688 408.815 463.994 393.785 457.942 382.893L451.386 386.535ZM474.267 431.212L467.561 434.572L475.224 449.862L481.929 446.502L488.634 443.142L480.972 427.852L474.267 431.212ZM481.929 446.502L475.202 449.819C482.047 463.698 487.903 475.373 492.767 484.837L499.438 481.408L506.108 477.98C501.295 468.615 495.478 457.02 488.655 443.185L481.929 446.502ZM499.438 481.408L492.855 485.002C498.031 494.485 503.576 503.164 509.497 511.02L515.486 506.506L521.476 501.992C516.04 494.78 510.885 486.726 506.021 477.815L499.438 481.408ZM515.486 506.506L509.466 510.978C511.238 513.364 512.429 515.195 513.151 516.521L519.737 512.934L526.324 509.347C525.135 507.163 523.493 504.707 521.507 502.033L515.486 506.506ZM519.737 512.934L517.408 505.805C507.437 509.063 497.126 511.989 486.616 514.536L488.383 521.825L490.15 529.114C501.03 526.477 511.717 523.445 522.067 520.063L519.737 512.934ZM488.383 521.825L494.584 517.606C493.769 516.409 493.001 515.167 492.28 513.878L485.734 517.54L479.189 521.202C480.122 522.87 481.12 524.484 482.182 526.045L488.383 521.825ZM485.734 517.54L492.344 513.996C490.295 510.173 488.046 505.53 485.599 500.041L478.749 503.095L471.899 506.148C474.447 511.866 476.856 516.853 479.125 521.084L485.734 517.54ZM478.749 503.095L485.443 499.713C484.952 498.741 483.506 495.878 481.072 491.061L474.378 494.442L467.684 497.824C470.107 502.62 471.575 505.526 472.055 506.477L478.749 503.095ZM474.378 494.442L481.186 491.297C478.758 486.042 475.99 481.396 472.832 477.452L466.978 482.141L461.124 486.829C463.374 489.639 465.54 493.195 467.57 497.588L474.378 494.442ZM466.978 482.141L465.274 474.837C453.048 477.689 443.25 479.398 435.777 480.052L436.431 487.524L437.084 494.995C445.551 494.254 456.117 492.375 468.681 489.445L466.978 482.141ZM436.431 487.524L435.777 480.052C431.504 480.426 426.708 480.748 421.384 481.015L421.761 488.506L422.137 495.996C427.607 495.721 432.591 495.388 437.084 494.995L436.431 487.524ZM421.761 488.506L421.682 481.006C416.425 481.062 412.287 481.204 409.399 481.456L410.053 488.928L410.706 496.399C412.999 496.199 416.666 496.06 421.84 496.006L421.761 488.506ZM410.053 488.928L409.997 481.428C399.879 481.503 391.65 481.805 385.386 482.353L386.04 489.824L386.694 497.296C392.385 496.798 400.164 496.502 410.109 496.428L410.053 488.928ZM386.04 489.824L379.671 485.864C377.32 489.645 375.321 493.618 373.677 497.778L380.652 500.534L387.627 503.291C388.942 499.964 390.536 496.798 392.409 493.784L386.04 489.824ZM380.652 500.534L373.559 498.097C372.19 502.084 370.513 507.855 368.539 515.299L375.788 517.222L383.037 519.145C384.988 511.79 386.555 506.436 387.745 502.971L380.652 500.534ZM375.788 517.222L368.514 515.395C367.199 520.632 365.961 525.051 364.802 528.677L371.945 530.961L379.089 533.245C380.373 529.229 381.697 524.488 383.062 519.048L375.788 517.222ZM371.945 530.961L372.983 523.533C362.427 522.059 352.928 519.768 344.552 516.737L342 523.789L339.448 530.842C348.947 534.279 359.48 536.793 370.908 538.389L371.945 530.961ZM342 523.789L349.319 525.426C350.147 521.726 351.16 517.905 352.367 513.965L345.196 511.768L338.025 509.57C336.711 513.859 335.597 518.054 334.681 522.152L342 523.789ZM345.196 511.768L352.341 514.05C355.135 505.302 359.186 493.603 364.509 478.921L357.458 476.364L350.407 473.808C345.056 488.568 340.931 500.472 338.052 509.486L345.196 511.768ZM357.458 476.364L364.623 478.583L374.014 448.249L366.85 446.03L359.685 443.812L350.294 474.146L357.458 476.364ZM366.85 446.03L374.043 448.154C379.131 430.92 383.815 416.173 388.097 403.896L381.016 401.426L373.934 398.956C369.549 411.529 364.79 426.519 359.657 443.907L366.85 446.03ZM381.016 401.426L388.063 403.993C392.522 391.752 398.489 377.129 405.985 360.101L399.12 357.079L392.256 354.058C384.678 371.273 378.575 386.215 373.969 398.859L381.016 401.426ZM399.12 357.079L406.095 359.836C406.436 358.975 407.166 357.909 408.849 356.742L404.574 350.579L400.3 344.416C396.682 346.925 393.777 350.193 392.145 354.323L399.12 357.079ZM404.574 350.579L409.164 356.511C410.635 355.373 412.271 354.723 414.257 354.55L413.604 347.078L412.95 339.607C408.162 340.026 403.779 341.711 399.984 344.648L404.574 350.579ZM555.164 396.73L555.818 404.201C560.882 403.758 562.14 404.858 562.177 404.895L567.458 399.569L572.739 394.244C567.939 389.484 561.002 388.69 554.51 389.258L555.164 396.73ZM567.458 399.569L562.411 405.117C563.015 405.666 564.23 407.416 564.645 412.163L572.116 411.509L579.588 410.855C579.027 404.444 577.136 398.234 572.505 394.021L567.458 399.569ZM572.116 411.509L564.645 412.163L569.352 465.957L576.823 465.303L584.295 464.649L579.588 410.855L572.116 411.509ZM576.823 465.303L569.352 465.956L570.11 474.623L577.581 473.97L585.053 473.317L584.295 464.65L576.823 465.303ZM577.581 473.97L570.11 474.623C570.52 479.315 570.992 483.863 571.521 488.268L578.968 487.372L586.414 486.477C585.905 482.239 585.449 477.853 585.053 473.316L577.581 473.97ZM578.968 487.372L575.273 480.846C566.653 485.726 557.246 490.343 547.225 494.628L550.174 501.524L553.123 508.42C563.597 503.941 573.509 499.082 582.663 493.899L578.968 487.372ZM550.174 501.524L557.644 500.849C556.208 484.946 554.16 467.286 551.499 447.877L544.068 448.896L536.638 449.914C539.274 469.143 541.294 486.569 542.704 502.198L550.174 501.524ZM544.068 448.896L551.503 447.911C549.137 430.044 547.661 417.678 547.05 410.69L539.578 411.344L532.107 411.998C532.75 419.355 534.268 432.024 536.633 449.88L544.068 448.896ZM539.578 411.344L547.05 410.69C546.995 410.07 547.036 409.025 549.052 407.283L544.148 401.608L539.243 395.934C534.539 400 531.533 405.445 532.107 411.998L539.578 411.344ZM544.148 401.608L549.052 407.283C551.357 405.291 553.576 404.397 555.818 404.201L555.164 396.73L554.51 389.258C548.783 389.759 543.658 392.119 539.243 395.934L544.148 401.608ZM417.066 383.214L409.879 381.072C407.008 390.706 402.584 403.349 396.569 419.055L403.572 421.737L410.576 424.42C416.654 408.552 421.228 395.511 424.254 385.356L417.066 383.214ZM403.572 421.737L396.669 418.806C392.299 429.096 387.698 443.544 382.841 461.959L390.093 463.872L397.345 465.785C402.136 447.621 406.522 433.979 410.476 424.669L403.572 421.737ZM390.093 463.872L389.815 471.367C403.058 471.858 417.189 471.439 432.199 470.126L431.545 462.654L430.891 455.183C416.413 456.45 402.909 456.843 390.371 456.377L390.093 463.872ZM431.545 462.654L432.199 470.126C442.983 469.182 451.848 467.699 458.501 465.52L456.167 458.393L453.833 451.265C448.776 452.921 441.226 454.279 430.891 455.183L431.545 462.654ZM456.167 458.393L462.649 454.62C459.069 448.47 453.59 437.411 446.15 421.202L439.334 424.33L432.518 427.459C439.961 443.676 445.704 455.325 449.685 462.165L456.167 458.393ZM439.334 424.33L446.185 421.279C438.336 403.654 430.683 389.457 423.186 378.877L417.066 383.214L410.947 387.55C417.651 397.01 424.842 410.224 432.483 427.381L439.334 424.33ZM541.331 335L541.344 342.5C547.376 342.489 552.434 343.653 556.7 345.79L560.059 339.084L563.418 332.378C556.765 329.046 549.338 327.486 541.318 327.5L541.331 335ZM560.059 339.084L556.891 345.882C559.806 347.241 561.244 349.191 561.56 352.805L569.031 352.151L576.503 351.498C575.738 342.759 571.194 335.998 563.226 332.286L560.059 339.084ZM569.031 352.151L561.56 352.805C561.704 354.454 561.286 355.973 558.861 357.832L563.424 363.784L567.987 369.737C573.84 365.25 577.16 359.013 576.503 351.498L569.031 352.151ZM563.424 363.784L558.935 357.776C556.314 359.734 552.755 361.104 547.869 361.532L548.523 369.003L549.176 376.474C556.244 375.856 562.619 373.747 567.912 369.793L563.424 363.784ZM548.523 369.003L547.869 361.532C543.108 361.948 541.967 360.795 541.814 360.621L536.176 365.566L530.538 370.512C535.291 375.931 542.382 377.069 549.176 376.474L548.523 369.003ZM536.176 365.566L541.814 360.621C540.237 358.822 539.668 357.287 539.55 355.935L532.078 356.589L524.607 357.243C525.046 362.267 527.209 366.717 530.537 370.512L536.176 365.566ZM532.078 356.589L539.55 355.935C539.065 350.396 539.258 346.147 539.908 343.01L532.564 341.489L525.219 339.969C524.175 345.01 524.045 350.827 524.607 357.243L532.078 356.589ZM532.564 341.489L539.831 343.341C539.925 342.971 540.018 342.815 540.037 342.785C540.048 342.767 540.031 342.794 540.002 342.815C539.936 342.864 540.292 342.555 541.673 342.492L541.331 335L540.989 327.508C537.572 327.664 534.066 328.547 531.078 330.759C528.005 333.033 526.171 336.201 525.296 339.638L532.564 341.489Z" fill="#A0C878"/>
<path d="M437.893 650.652C436.724 651.825 435.578 652.495 434.455 652.66C433.398 652.819 432.156 652.392 430.729 651.38C429.362 650.295 428.546 648.994 428.279 647.478C428.013 645.962 428.546 644.41 429.88 642.821C431.279 641.226 432.904 639.913 434.755 638.881C436.605 637.849 438.693 637.232 441.017 637.028C442.877 636.866 444.732 637.038 446.583 637.545C448.501 638.047 450.361 638.653 452.163 639.366C453.96 640.012 455.651 640.6 457.236 641.13C458.888 641.655 460.345 641.862 461.607 641.752C462.67 641.659 463.737 641.231 464.807 640.468C466.502 639.182 467.968 638.351 469.207 637.975C470.506 637.527 471.836 637.812 473.197 638.831C474.557 639.849 475.371 641.116 475.637 642.632C475.904 644.148 475.337 645.703 473.937 647.298C472.538 648.893 470.88 650.209 468.963 651.247C467.112 652.279 465.025 652.896 462.7 653.1C460.774 653.268 458.889 653.132 457.043 652.691C455.258 652.178 453.498 651.562 451.762 650.844C450.026 650.126 448.368 649.535 446.789 649.071C445.203 648.541 443.647 648.342 442.119 648.476C440.592 648.609 439.183 649.335 437.893 650.652ZM497.839 675.322C493.456 675.705 491.072 673.705 490.689 669.322L485.738 612.738C485.355 608.355 487.355 605.972 491.738 605.588L526.107 602.581C530.49 602.198 532.856 603.998 533.204 607.983C533.553 611.968 531.536 614.152 527.153 614.536L499.159 616.985L500.58 633.223L525.585 631.035C529.968 630.651 532.334 632.452 532.682 636.437C533.031 640.422 531.014 642.606 526.63 642.989L501.626 645.177L503.169 662.81L532.257 660.265C536.641 659.881 539.007 661.682 539.355 665.667C539.704 669.651 537.687 671.835 533.303 672.219L497.839 675.322ZM556.703 670.172C552.519 670.538 550.235 668.529 549.852 664.146L546.801 629.279C546.418 624.896 548.318 622.521 552.502 622.155C556.686 621.789 558.97 623.798 559.353 628.181L562.404 663.048C562.787 667.431 560.887 669.806 556.703 670.172ZM551.775 614.991C549.65 615.177 547.757 614.573 546.095 613.179C544.501 611.78 543.61 610.017 543.424 607.892C543.239 605.767 543.812 603.91 545.145 602.321C546.539 600.66 548.299 599.736 550.424 599.55C552.549 599.364 554.409 599.971 556.004 601.371C557.659 602.698 558.58 604.425 558.766 606.55C558.952 608.675 558.348 610.568 556.954 612.229C555.627 613.885 553.9 614.805 551.775 614.991ZM595.703 667.864C592.516 668.143 589.761 668.016 587.439 667.483C585.189 667.01 583.382 665.863 582.018 664.042C580.721 662.215 579.918 659.541 579.61 656.021L577.405 630.818L575.014 631.027C570.631 631.41 568.282 629.809 567.969 626.223C567.818 624.496 568.166 623.127 569.015 622.116C569.863 621.105 571.516 620.492 573.973 620.277L576.464 620.059L575.583 609.997C575.398 607.872 575.786 606.198 576.75 604.976C577.781 603.749 579.292 603.048 581.284 602.873C585.402 602.513 587.652 604.524 588.036 608.908L588.916 618.969L595.292 618.412C599.675 618.028 602.024 619.629 602.337 623.216C602.651 626.802 600.65 628.784 596.333 629.162L589.857 629.728L591.775 651.645C591.955 653.703 592.575 655.054 593.635 655.698C594.762 656.335 596.288 656.57 598.214 656.401C600.472 656.204 602.228 656.385 603.481 656.944C604.729 657.438 605.449 658.78 605.641 660.972C605.797 662.765 605.416 664.137 604.495 665.087C603.574 666.038 602.326 666.682 600.749 667.021C599.178 667.426 597.497 667.707 595.703 667.864ZM630.797 664.292C625.574 665.016 621.092 664.271 617.351 662.055C613.677 659.833 611.631 656.332 611.212 651.55C610.916 648.163 611.66 645.187 613.443 642.622C615.287 639.984 617.744 637.862 620.816 636.255C623.948 634.575 627.238 633.552 630.686 633.183C632.202 632.916 633.674 632.921 635.104 633.198C636.528 633.408 637.863 633.76 639.111 634.253L638.832 631.065C638.588 628.276 637.834 626.535 636.568 625.842C635.297 625.084 633.566 624.8 631.374 624.992C629.581 625.149 627.742 625.544 625.857 626.177C624.032 626.738 622.255 627.463 620.526 628.35C618.67 629.316 617.035 629.76 615.623 629.682C614.272 629.533 613.064 628.735 612.001 627.289C611.004 625.837 610.677 624.393 611.02 622.958C611.357 621.456 612.484 620.187 614.401 619.149C616.699 617.877 619.18 616.79 621.845 615.888C624.576 614.98 627.436 614.395 630.424 614.133C636.601 613.593 641.393 614.445 644.802 616.69C648.211 618.935 650.205 623.378 650.787 630.019L652.617 650.939C652.675 651.603 652.749 652.065 652.838 652.325C653.119 653.237 653.539 653.836 654.1 654.122C654.721 654.335 655.336 654.482 655.945 654.563C656.549 654.577 657.059 654.666 657.474 654.831C657.951 654.923 658.218 655.301 658.276 655.965C658.387 657.227 658.12 658.388 657.477 659.448C656.9 660.502 655.829 661.265 654.264 661.737C653.545 661.933 652.79 662.1 651.999 662.236C651.214 662.438 650.389 662.578 649.526 662.653C645.608 662.996 643.001 661.886 641.706 659.322C638.854 661.914 635.218 663.57 630.797 664.292ZM629.557 653.559C633.06 653.052 635.791 652.143 637.751 650.834C639.772 649.453 640.626 647.739 640.313 645.692C640.113 644.17 639.262 643.24 637.76 642.903C636.325 642.561 634.583 642.546 632.536 642.859C629.493 643.259 627.138 644.268 625.473 645.886C623.802 647.437 623.069 649.007 623.275 650.595C623.44 651.718 624.017 652.571 625.005 653.154C626.053 653.665 627.571 653.8 629.557 653.559ZM673.799 659.927C669.615 660.293 667.331 658.285 666.947 653.901L663.897 619.035C663.514 614.651 665.181 612.297 668.9 611.972C672.686 611.64 674.757 612.363 675.113 614.138L675.647 616.802C676.824 614.959 678.384 613.283 680.327 611.775C682.336 610.261 684.768 609.379 687.624 609.129C692.605 608.693 696.796 609.933 700.196 612.847C703.663 615.756 705.669 620.332 706.215 626.575L708.29 650.284C708.673 654.668 706.773 657.042 702.589 657.408C698.405 657.774 696.121 655.766 695.737 651.383L693.933 630.761C693.625 627.241 692.696 624.646 691.144 622.975C689.659 621.298 687.754 620.561 685.43 620.764C682.906 620.985 680.895 622.098 679.398 624.103C677.961 626.035 677.414 628.961 677.756 632.879L679.5 652.803C679.883 657.186 677.983 659.561 673.799 659.927ZM727.509 625.314C726.34 626.487 725.194 627.156 724.071 627.322C723.014 627.481 721.772 627.054 720.345 626.041C718.979 624.956 718.162 623.656 717.896 622.14C717.629 620.624 718.163 619.072 719.496 617.483C720.896 615.888 722.521 614.575 724.371 613.543C726.222 612.511 728.309 611.894 730.634 611.69C732.493 611.527 734.348 611.7 736.2 612.207C738.117 612.708 739.977 613.315 741.78 614.028C743.576 614.673 745.267 615.262 746.853 615.792C748.505 616.317 749.962 616.524 751.224 616.414C752.286 616.321 753.353 615.893 754.424 615.13C756.118 613.844 757.585 613.013 758.823 612.637C760.123 612.189 761.452 612.474 762.813 613.492C764.174 614.511 764.987 615.778 765.254 617.294C765.52 618.81 764.954 620.365 763.554 621.96C762.154 623.555 760.496 624.871 758.579 625.909C756.729 626.941 754.641 627.558 752.317 627.761C750.391 627.93 748.505 627.794 746.66 627.353C744.875 626.84 743.114 626.224 741.379 625.506C739.643 624.788 737.985 624.197 736.405 623.733C734.819 623.202 733.263 623.004 731.735 623.138C730.208 623.271 728.799 623.997 727.509 625.314Z" fill="#757575"/>
<path d="M985.102 41.4816C988.896 40.8351 992.349 43.8719 992.815 48.2632C993.282 52.6547 990.584 56.7385 986.791 57.3852C980.362 58.4812 975.862 59.8819 972.495 61.7571C1029.06 79.1605 1056.8 107.107 1032.77 127.164C1026.12 153.321 982.079 155.001 931.544 142.152C881.009 129.303 837.689 105.41 844.34 79.2538C845.692 32.6539 896.578 19.7593 953.312 56.5389C954.1 56.7271 954.883 56.9182 955.662 57.1104C956.831 55.5261 958.096 54.0569 959.479 52.705C966.215 46.1197 974.735 43.2489 985.102 41.4816Z" fill="#FFFDF6"/>
<path d="M852.814 69.0726C891.192 65.3385 925.188 90.6077 929.734 125.81C932.123 126.192 934.518 126.622 936.919 127.1C939.028 127.52 941.118 127.975 943.19 128.46C960.887 97.7085 1001.96 87.4066 1035.96 105.556C1070.6 124.044 1084.8 165.05 1067.67 197.146C1063.64 204.702 1058.23 211.09 1051.86 216.201C1056.27 229.854 1057.37 244.096 1054.55 258.247C1043.15 315.465 972.008 349.519 895.644 334.307C819.28 319.096 766.614 260.38 778.012 203.161C780.783 189.249 787.086 176.706 796.138 165.908C791.986 158.562 789.29 150.336 788.432 141.522C784.909 105.312 813.734 72.8751 852.814 69.0726Z" fill="#FFFDF6"/>
<path d="M980.143 54.3784C983.795 53.9727 987.051 56.9547 987.502 61.2091C987.969 65.6007 985.271 69.6851 981.477 70.3318C975.639 71.3269 971.513 72.5832 968.412 74.2297C1021.69 90.7441 1047.75 117.133 1025.04 136.09C1018.73 160.893 976.966 162.486 929.045 150.301C881.124 138.117 840.045 115.461 846.351 90.6573C847.633 46.4677 895.888 34.2398 949.687 69.1169C950.301 69.2637 950.913 69.4121 951.522 69.5614C952.676 67.978 953.932 66.5126 955.309 65.1666C961.574 59.0416 969.429 56.2818 978.87 54.5886L979.789 54.4284L980.143 54.3784Z" fill="#C87A78"/>
<path d="M940.088 137.318C956.869 108.157 995.814 98.3872 1028.06 115.598C1060.91 133.129 1074.37 172.015 1058.13 202.451C1054.31 209.616 1049.17 215.673 1043.14 220.52C1047.32 233.467 1048.36 246.972 1045.69 260.391C1034.88 314.65 967.416 346.942 895.001 332.518C822.587 318.093 772.646 262.414 783.454 208.155C786.082 194.963 792.058 183.069 800.641 172.83C796.705 165.864 794.149 158.064 793.336 149.705C789.995 115.368 817.329 84.6085 854.388 81.0027C890.78 77.4619 923.017 101.424 927.328 134.805C929.593 135.166 931.865 135.575 934.141 136.028C936.141 136.427 938.123 136.858 940.088 137.318Z" fill="#A0C878"/>
<circle cx="997.295" cy="177.736" r="28.567" transform="rotate(11.2656 997.295 177.736)" fill="#757575"/>
<circle cx="984.548" cy="169.385" r="5.71341" transform="rotate(11.2656 984.548 169.385)" fill="#FFFDF6"/>
<circle cx="859.079" cy="150.204" r="28.567" transform="rotate(11.2656 859.079 150.204)" fill="#757575"/>
<circle cx="847.08" cy="142.001" r="5.71341" transform="rotate(11.2656 847.08 142.001)" fill="#FFFDF6"/>
<ellipse cx="901.098" cy="223.713" rx="4.57073" ry="6.47519" transform="rotate(-18.7344 901.098 223.713)" fill="#757575"/>
<ellipse cx="4.57072" cy="6.47519" rx="4.57072" ry="6.47519" transform="matrix(-0.75166 -0.659551 -0.659551 0.75166 938.689 227.814)" fill="#757575"/>
<path d="M948.318 251.91C950.086 249.075 953.347 247.514 956.666 247.897V247.897C959.187 248.187 960.942 250.566 960.456 253.057L959.523 257.84L931.14 267.879L934.957 265.433C940.358 261.972 944.922 257.352 948.318 251.91V251.91Z" fill="#C87A78"/>
<path d="M866.43 241.785L868.227 243.738C891.792 269.354 929.499 276.214 960.577 260.538V260.538" stroke="#757575" stroke-width="10" stroke-linecap="round"/>
<defs>
<linearGradient id="paint0_linear_523_1027" x1="45.5" y1="403" x2="145.5" y2="613" gradientUnits="userSpaceOnUse">
<stop stop-color="#969292"/>
<stop offset="0.9999" stop-color="#757575"/>
</linearGradient>
</defs>
</svg>
